#!OML:ASF X:\für Bonn\!DataBase\2005_08_12_Daniel\c3d\Daniel.ASF
:FULLY-SPECIFIED
:DEGREES
157
root -0.295784 11.9124 1.3719 181.029 -10.0698 -188.969
lowerback 80.4534 -10.033 20.2886
upperback 9.94281 -3.96752 -1.7935
thorax -7.97975 -4.75152 -7.25575
lowerneck 2.92717 -8.97475 -2.10676
upperneck 9.55401 -12.7212 2.2372
head 2.86073 -6.38855 0.832809
rclavicle 3.49861e-014 -6.75868e-015
rhumerus 221.709 -156.301 -256.317
rradius 6.1504
rwrist 31.8936
rhand -48.6329 20.0684
rfingers 7.12502
rthumb -21.2765 -8.78379
lclavicle 3.49861e-014 -6.75868e-015
lhumerus -25.2402 -16.655 93.7664
lradius 50.1336
lwrist 10.2526
lhand -9.23347 -9.44788
lfingers 7.12502
lthumb 16.7217 19.852
rfemur -74.8349 -15.0262 7.42167
rtibia 115.047
rfoot -35.0036 -2.07511
rtoes -22.5113
lfemur -73.3528 1.5116 -29.9664
ltibia 110.543
lfoot -33.2617 -18.3222
ltoes -0.0720946
158
root -0.304368 11.9034 1.36988 180.944 -10.0575 -189.001
lowerback 80.388 -9.97134 20.2427
upperback 10.001 -3.98502 -1.75302
thorax -7.92512 -4.76758 -7.19105
lowerneck 2.74741 -8.98429 -2.19298
upperneck 9.63326 -12.736 2.20702
head 2.92416 -6.39762 0.824724
rclavicle -6.36111e-015 -7.15625e-015
rhumerus 221.828 -156.298 -256.339
rradius 5.95765
rwrist 32.2853
rhand -48.6816 19.725
rfingers 7.12502
rthumb -21.3232 -9.12186
lclavicle -6.36111e-015 -7.15625e-015
lhumerus -25.1614 -16.6069 93.7578
lradius 50.1015
lwrist 10.1667
lhand -9.27333 -9.28342
lfingers 7.12502
lthumb 16.6833 20.0196
rfemur -74.7803 -15.0645 7.30781
rtibia 115.133
rfoot -34.998 -2.01842
rtoes -22.5875
lfemur -73.2817 1.52672 -30.0434
ltibia 110.622
lfoot -33.2978 -18.3036
ltoes 0.0645075
159
root -0.312313 11.8959 1.36823 180.902 -10.0514 -189.038
lowerback 80.2857 -9.89501 20.1967
upperback 10.0477 -3.97673 -1.70852
thorax -7.88625 -4.76984 -7.1334
lowerneck 2.64932 -9.00981 -2.22266
upperneck 9.64515 -12.766 2.14287
head 2.94362 -6.41456 0.80304
rclavicle 1.90833e-014 4.13472e-014
rhumerus 221.892 -156.274 -256.344
rradius 5.80613
rwrist 32.678
rhand -48.6345 19.438
rfingers 7.12502
rthumb -21.278 -9.41401
lclavicle 1.90833e-014 4.13472e-014
lhumerus -25.1364 -16.5322 93.7756
lradius 50.0954
lwrist 10.0637
lhand -9.26617 -9.08878
lfingers 7.12502
lthumb 16.6902 20.2137
rfemur -74.7737 -15.1284 7.21736
rtibia 115.211
rfoot -34.9644 -1.99586
rtoes -22.7202
lfemur -73.2447 1.52561 -30.1231
ltibia 110.674
lfoot -33.3628 -18.2929
ltoes 0.053226
160
root -0.320401 11.8912 1.36635 180.841 -10.0483 -189.071
lowerback 80.1815 -9.82636 20.1572
upperback 10.1138 -3.98509 -1.6691
thorax -7.82586 -4.77889 -7.07866
lowerneck 2.49864 -9.02152 -2.25296
upperneck 9.68789 -12.7788 2.10663
head 2.98491 -6.42111 0.786886
rclavicle -1.36764e-013 -8.98507e-014
rhumerus 222.022 -156.266 -256.39
rradius 5.61414
rwrist 33.0553
rhand -48.6113 19.1485
rfingers 7.12502
rthumb -21.2557 -9.70599
lclavicle -1.36764e-013 -8.98507e-014
lhumerus -25.0953 -16.4993 93.7728
lradius 50.1046
lwrist 10.0354
lhand -9.335 -8.88461
lfingers 7.12502
lthumb 16.6239 20.4234
rfemur -74.7081 -15.1785 7.11349
rtibia 115.243
rfoot -34.9403 -1.94164
rtoes -22.7898
lfemur -73.1814 1.51141 -30.1961
ltibia 110.703
lfoot -33.3965 -18.2683
ltoes 0.106042
161
root -0.328191 11.8938 1.36559 180.774 -10.0308 -189.103
lowerback 80.1532 -9.76653 20.1012
upperback 10.1318 -3.9842 -1.64078
thorax -7.8146 -4.78623 -7.02858
lowerneck 2.44026 -9.03155 -2.23546
upperneck 9.70074 -12.7873 2.02493
head 2.9921 -6.42719 0.754977
rclavicle 0 6.36111e-015
rhumerus 222.121 -156.268 -256.426
rradius 5.4389
rwrist 33.3546
rhand -48.4889 18.8867
rfingers 7.12502
rthumb -21.1381 -9.981
lclavicle 0 6.36111e-015
lhumerus -25.0907 -16.4233 93.7778
lradius 50.0961
lwrist 9.96946
lhand -9.37335 -8.73733
lfingers 7.12502
lthumb 16.587 20.5738
rfemur -74.5868 -15.1732 7.01064
rtibia 115.203
rfoot -34.9168 -1.92218
rtoes -22.9406
lfemur -73.0376 1.51486 -30.2626
ltibia 110.654
lfoot -33.4454 -18.2516
ltoes 0.165029
162
root -0.335443 11.9076 1.36485 180.71 -10.017 -189.136
lowerback 80.2182 -9.77809 20.0737
upperback 10.1031 -4.00463 -1.65796
thorax -7.84776 -4.79819 -7.02583
lowerneck 2.38468 -9.04031 -2.16823
upperneck 9.67283 -12.788 1.93861
head 2.98053 -6.42748 0.71551
rclavicle -7.31528e-014 -1.00187e-013
rhumerus 222.229 -156.261 -256.506
rradius 5.27322
rwrist 33.6758
rhand -48.3653 18.5998
rfingers 7.12502
rthumb -21.0194 -10.2811
lclavicle -7.31528e-014 -1.00187e-013
lhumerus -25.0817 -16.3913 93.7606
lradius 50.084
lwrist 9.92726
lhand -9.44844 -8.54728
lfingers 7.12502
lthumb 16.5147 20.7699
rfemur -74.3765 -15.1134 6.90714
rtibia 115.063
rfoot -34.8883 -1.94226
rtoes -23.0057
lfemur -72.8236 1.5065 -30.3259
ltibia 110.501
lfoot -33.4596 -18.2352
ltoes 0.230911
163
root -0.342882 11.9331 1.3634 180.643 -9.99691 -189.152
lowerback 80.3616 -9.80589 20.0359
upperback 10.0288 -4.021 -1.66454
thorax -7.92378 -4.81445 -7.00104
lowerneck 2.36373 -9.03744 -2.12894
upperneck 9.65832 -12.7764 1.83772
head 2.96795 -6.42438 0.677667
rclavicle 3.18055e-015 7.15625e-015
rhumerus 222.33 -156.297 -256.561
rradius 5.14595
rwrist 33.9124
rhand -48.1759 18.3168
rfingers 7.12502
rthumb -20.8374 -10.5842
lclavicle 3.18055e-015 7.15625e-015
lhumerus -25.0741 -16.2831 93.764
lradius 50.0455
lwrist 9.86785
lhand -9.53536 -8.42493
lfingers 7.12502
lthumb 16.431 20.8992
rfemur -74.0531 -14.9793 6.80972
rtibia 114.799
rfoot -34.8501 -1.98035
rtoes -23.0037
lfemur -72.515 1.49083 -30.3629
ltibia 110.246
lfoot -33.4689 -18.2113
ltoes 0.29065
164
root -0.350242 11.9677 1.36252 180.575 -9.97956 -189.171
lowerback 80.5813 -9.88794 20.0227
upperback 9.91714 -4.04901 -1.70919
thorax -8.03444 -4.83158 -7.01932
lowerneck 2.34806 -9.04438 -2.05082
upperneck 9.61962 -12.7749 1.73806
head 2.94368 -6.42442 0.635004
rclavicle -9.54166e-015 3.33958e-014
rhumerus 222.433 -156.289 -256.623
rradius 5.0135
rwrist 34.0572
rhand -47.9697 18.0697
rfingers 7.12502
rthumb -20.6392 -10.853
lclavicle -9.54166e-015 3.33958e-014
lhumerus -25.0787 -16.2254 93.7454
lradius 49.9878
lwrist 9.84298
lhand -9.62 -8.37773
lfingers 7.12502
lthumb 16.3496 20.9531
rfemur -73.6592 -14.7993 6.70512
rtibia 114.448
rfoot -34.7963 -2.05975
rtoes -23.0534
lfemur -72.1445 1.46384 -30.4025
ltibia 109.902
lfoot -33.4453 -18.1844
ltoes 0.356735
165
root -0.358205 12.0103 1.36185 180.505 -9.95957 -189.183
lowerback 80.8314 -9.97484 20.0038
upperback 9.77549 -4.0678 -1.73922
thorax -8.17443 -4.84901 -7.01793
lowerneck 2.37659 -9.03394 -2.03973
upperneck 9.57618 -12.7537 1.64589
head 2.91498 -6.41829 0.608107
rclavicle -3.18055e-014 8.34896e-015
rhumerus 222.494 -156.295 -256.627
rradius 4.8915
rwrist 34.1995
rhand -47.735 17.8253
rfingers 7.12502
rthumb -20.4138 -11.1217
lclavicle -3.18055e-014 8.34896e-015
lhumerus -25.0963 -16.1278 93.7673
lradius 49.8946
lwrist 9.80565
lhand -9.68306 -8.4083
lfingers 7.12502
lthumb 16.2888 20.9275
rfemur -73.2063 -14.5665 6.60478
rtibia 114.017
rfoot -34.7421 -2.16814
rtoes -23.0568
lfemur -71.6983 1.42176 -30.4304
ltibia 109.475
lfoot -33.4119 -18.1496
ltoes 0.429311
166
root -0.366347 12.058 1.3611 180.431 -9.92673 -189.181
lowerback 81.0687 -10.0691 19.9998
upperback 9.6468 -4.09253 -1.80128
thorax -8.30289 -4.86311 -7.06008
lowerneck 2.47869 -9.03494 -1.95497
upperneck 9.47483 -12.744 1.56563
head 2.84933 -6.41501 0.579004
rclavicle -6.67916e-014 2.14687e-014
rhumerus 222.522 -156.269 -256.669
rradius 4.82333
rwrist 34.2946
rhand -47.4789 17.6242
rfingers 7.12502
rthumb -20.1676 -11.3489
lclavicle -6.67916e-014 2.14687e-014
lhumerus -25.1111 -16.0386 93.7434
lradius 49.7837
lwrist 9.78997
lhand -9.67519 -8.46039
lfingers 7.12502
lthumb 16.2964 20.8748
rfemur -72.7184 -14.3071 6.52485
rtibia 113.532
rfoot -34.7041 -2.305
rtoes -23.1727
lfemur -71.23 1.39964 -30.4426
ltibia 109.011
lfoot -33.3854 -18.1154
ltoes 0.486896
167
root -0.374793 12.1083 1.36042 180.362 -9.88594 -189.197
lowerback 81.2736 -10.1355 19.9839
upperback 9.5426 -4.1125 -1.83893
thorax -8.40549 -4.87784 -7.07428
lowerneck 2.53364 -9.02849 -1.92998
upperneck 9.38385 -12.7256 1.5003
head 2.80115 -6.40853 0.561168
rclavicle -7.31528e-014 1.94809e-014
rhumerus 222.577 -156.247 -256.682
rradius 4.73537
rwrist 34.3902
rhand -47.2283 17.3144
rfingers 7.12502
rthumb -19.9267 -11.684
lclavicle -7.31528e-014 1.94809e-014
lhumerus -25.1026 -15.9323 93.7499
lradius 49.6564
lwrist 9.77056
lhand -9.68424 -8.60555
lfingers 7.12502
lthumb 16.2877 20.7304
rfemur -72.2143 -14.0394 6.41348
rtibia 113.018
rfoot -34.6225 -2.39237
rtoes -23.1413
lfemur -70.7454 1.38053 -30.4869
ltibia 108.513
lfoot -33.3293 -18.0484
ltoes 0.527633
168
root -0.383784 12.1615 1.36023 180.274 -9.83826 -189.195
lowerback 81.4487 -10.2115 19.9895
upperback 9.46612 -4.14625 -1.90102
thorax -8.48048 -4.89373 -7.1233
lowerneck 2.6672 -9.02446 -1.88142
upperneck 9.25657 -12.7103 1.45212
head 2.72659 -6.40281 0.550263
rclavicle -5.08889e-014 -7.15625e-015
rhumerus 222.602 -156.201 -256.728
rradius 4.69368
rwrist 34.4706
rhand -46.8884 16.9146
rfingers 7.12502
rthumb -19.6 -12.1174
lclavicle -5.08889e-014 -7.15625e-015
lhumerus -25.0368 -15.8607 93.7219
lradius 49.4563
lwrist 9.83207
lhand -9.66734 -8.77595
lfingers 7.12502
lthumb 16.304 20.5586
rfemur -71.6555 -13.7416 6.32011
rtibia 112.457
rfoot -34.5685 -2.51136
rtoes -23.1539
lfemur -70.2103 1.35695 -30.4986
ltibia 107.978
lfoot -33.2832 -18.0054
ltoes 0.59712
169
root -0.391943 12.2186 1.36046 180.208 -9.80457 -189.176
lowerback 81.5722 -10.2465 19.9833
upperback 9.39946 -4.15094 -1.91681
thorax -8.54491 -4.90211 -7.12741
lowerneck 2.83328 -9.00839 -1.85248
upperneck 9.1164 -12.6796 1.39853
head 2.64288 -6.39112 0.543175
rclavicle -6.67916e-014 -5.20816e-014
rhumerus 222.584 -156.175 -256.733
rradius 4.70108
rwrist 34.5701
rhand -46.4445 16.4799
rfingers 7.12502
rthumb -19.1732 -12.5951
lclavicle -6.67916e-014 -5.20816e-014
lhumerus -24.9583 -15.7509 93.7366
lradius 49.2228
lwrist 9.79945
lhand -9.6207 -8.99651
lfingers 7.12502
lthumb 16.3489 20.3344
rfemur -71.1121 -13.4397 6.25755
rtibia 111.87
rfoot -34.5004 -2.64943
rtoes -23.1649
lfemur -69.6988 1.31246 -30.4977
ltibia 107.421
lfoot -33.2307 -17.9239
ltoes 0.581122
170
root -0.400086 12.2775 1.36149 180.116 -9.74379 -189.154
lowerback 81.6765 -10.289 19.9886
upperback 9.35166 -4.17197 -1.95233
thorax -8.59214 -4.91509 -7.15467
lowerneck 3.08624 -8.98636 -1.92274
upperneck 8.91549 -12.645 1.41103
head 2.53603 -6.37971 0.578046
rclavicle 6.99722e-014 2.66371e-014
rhumerus 222.549 -156.158 -256.748
rradius 4.71447
rwrist 34.6813
rhand -45.9187 15.9672
rfingers 7.12502
rthumb -18.6675 -13.1571
lclavicle 6.99722e-014 2.66371e-014
lhumerus -24.9814 -15.6349 93.7492
lradius 49.1138
lwrist 9.76592
lhand -9.61983 -9.19467
lfingers 7.12502
lthumb 16.3497 20.1362
rfemur -70.5257 -13.0839 6.19114
rtibia 111.241
rfoot -34.4833 -2.77703
rtoes -23.1753
lfemur -69.1439 1.30885 -30.4885
ltibia 106.843
lfoot -33.1629 -17.8514
ltoes 0.568922
